<?xml version="1.0" encoding="iso-8859-1"?>
<!-- Uploaded to: SVG Repo, www.svgrepo.com, Generator: SVG Repo Mixer Tools -->
<svg version="1.1" id="Layer_1" xmlns="http://www.w3.org/2000/svg" xmlns:xlink="http://www.w3.org/1999/xlink" 
	 viewBox="0 0 512 512" xml:space="preserve">
<rect x="7.837" y="42.302" style="fill:#5BCDE4;" width="413.602" height="344.67"/>
<rect x="7.837" y="42.306" style="fill:#9FE1ED;" width="413.602" height="172.335"/>
<rect x="49.194" y="83.666" style="fill:#FFC25D;" width="413.602" height="344.67"/>
<rect x="49.194" y="83.666" style="fill:#FFDE90;" width="413.612" height="172.335"/>
<rect x="90.561" y="125.023" style="fill:#FFFFFF;" width="413.602" height="344.67"/>
<path d="M82.72,117.187v303.31h-25.69V91.5h397.939v12.622h15.673V75.827h-41.368V34.47H0v360.344h28.296V379.14H15.673V50.143
	h397.928v25.684H41.357V436.17H82.72v41.36H512V117.187H82.72z M496.327,461.858H98.394V132.86h397.933V461.858z"/>
<polygon points="184.599,430.511 129.741,430.511 129.741,375.654 114.067,375.654 114.067,446.184 184.599,446.184 "/>
<path d="M205.202,310.262h14.219l3.235,10.457h14.896l-18.507-53.415h-13.391l-18.582,53.415h14.971L205.202,310.262z
	 M212.349,283.931l4.74,16.551h-9.705L212.349,283.931z"/>
<path d="M264.185,304.319h8.727c2.607,0,5.003-0.514,7.185-1.542c2.182-1.027,4.036-2.407,5.567-4.138
	c1.53-1.73,2.72-3.71,3.574-5.943c0.852-2.231,1.279-4.525,1.279-6.884c0-2.257-0.451-4.501-1.354-6.733
	c-0.903-2.231-2.144-4.213-3.724-5.943c-1.58-1.73-3.473-3.134-5.68-4.213c-2.208-1.077-4.614-1.617-7.222-1.617h-23.021v53.415
	h14.67L264.185,304.319L264.185,304.319z M264.185,280.094h7.373c0.903,0,1.806,0.402,2.708,1.204
	c0.903,0.802,1.354,2.307,1.354,4.514c0,2.157-0.39,3.649-1.166,4.476c-0.778,0.828-1.618,1.241-2.52,1.241h-7.749L264.185,280.094
	L264.185,280.094z"/>
<path d="M318.577,304.319h8.727c2.607,0,5.003-0.514,7.185-1.542c2.182-1.027,4.036-2.407,5.567-4.138
	c1.53-1.73,2.721-3.71,3.574-5.943c0.852-2.231,1.279-4.525,1.279-6.884c0-2.257-0.451-4.501-1.354-6.733
	c-0.903-2.231-2.144-4.213-3.724-5.943c-1.58-1.73-3.473-3.134-5.68-4.213c-2.208-1.077-4.615-1.617-7.222-1.617h-23.021v53.415
	h14.67L318.577,304.319L318.577,304.319z M318.577,280.094h7.373c0.903,0,1.806,0.402,2.708,1.204
	c0.903,0.802,1.354,2.307,1.354,4.514c0,2.157-0.389,3.649-1.166,4.476c-0.778,0.828-1.618,1.241-2.52,1.241h-7.749L318.577,280.094
	L318.577,280.094z"/>
<path d="M381.508,307.516c-0.627,0.426-1.743,0.639-3.348,0.639c-2.107,0-4.175-0.301-6.207-0.903
	c-2.031-0.602-3.85-1.279-5.454-2.031c-1.907-0.853-3.738-1.831-5.492-2.934l-6.32,12.865c1.605,0.953,3.348,1.806,5.229,2.558
	c1.881,0.752,3.837,1.404,5.868,1.956c2.031,0.553,4.074,0.978,6.131,1.279c2.056,0.301,4.063,0.451,6.019,0.451
	c2.457,0,4.902-0.289,7.335-0.865c2.433-0.576,4.614-1.516,6.545-2.821c1.931-1.304,3.486-3.047,4.664-5.229
	c1.178-2.182,1.768-4.878,1.768-8.087c0-2.508-0.376-4.638-1.128-6.395c-0.752-1.755-1.832-3.248-3.235-4.476
	c-1.405-1.229-3.098-2.295-5.078-3.197c-1.982-0.903-4.202-1.73-6.658-2.483c-1.555-0.501-2.947-0.927-4.175-1.279
	c-1.23-0.35-2.27-0.715-3.122-1.091c-0.854-0.376-1.505-0.79-1.956-1.241c-0.451-0.451-0.677-1.027-0.677-1.73
	c0-0.952,0.388-1.629,1.166-2.031c0.777-0.4,1.817-0.602,3.122-0.602c1.605,0,3.246,0.263,4.928,0.79
	c1.679,0.527,3.197,1.091,4.552,1.693c1.605,0.703,3.16,1.505,4.664,2.407l6.32-12.112c-1.204-0.602-2.558-1.241-4.063-1.918
	c-1.505-0.677-3.122-1.304-4.853-1.881c-1.73-0.576-3.524-1.053-5.379-1.429c-1.856-0.376-3.762-0.564-5.718-0.564
	c-2.659,0-5.18,0.389-7.561,1.166c-2.383,0.778-4.502,1.918-6.357,3.423c-1.856,1.505-3.324,3.385-4.401,5.642
	c-1.079,2.257-1.618,4.865-1.618,7.824c0,1.956,0.263,3.686,0.79,5.191c0.527,1.505,1.342,2.847,2.445,4.025
	c1.102,1.179,2.507,2.232,4.213,3.16c1.704,0.929,3.736,1.794,6.094,2.596c1.605,0.553,3.122,1.028,4.552,1.429
	c1.429,0.402,2.696,0.802,3.799,1.204c1.102,0.402,1.968,0.865,2.596,1.392c0.627,0.527,0.94,1.166,0.94,1.918
	C382.448,306.526,382.134,307.09,381.508,307.516z"/>
</svg>