<?xml version="1.0" encoding="iso-8859-1"?>
<!-- Uploaded to: SVG Repo, www.svgrepo.com, Generator: SVG Repo Mixer Tools -->
<svg height="800px" width="800px" version="1.1" id="Layer_1" xmlns="http://www.w3.org/2000/svg" xmlns:xlink="http://www.w3.org/1999/xlink" 
	 viewBox="0 0 512 512" xml:space="preserve">
<g transform="translate(1 1)">
	<g>
		<path style="fill:#FFDD09;" d="M485.4,502.467H24.6c-9.387,0-17.067-7.68-17.067-17.067V109.933h494.933V485.4
			C502.467,494.787,494.787,502.467,485.4,502.467"/>
		<path style="fill:#FFDD09;" d="M502.467,109.933H7.533V24.6c0-9.387,7.68-17.067,17.067-17.067h460.8
			c9.387,0,17.067,7.68,17.067,17.067V109.933z"/>
	</g>
	<g>
		<path style="fill:#FD9808;" d="M485.4,109.933V485.4c0,9.387-7.68,17.067-17.067,17.067H485.4c9.387,0,17.067-7.68,17.067-17.067
			V109.933H485.4z"/>
		<path style="fill:#FD9808;" d="M485.4,7.533h-17.067c9.387,0,17.067,7.68,17.067,17.067v85.333h17.067V24.6
			C502.467,15.213,494.787,7.533,485.4,7.533"/>
	</g>
	<g>
		<path style="fill:#FFFFFF;" d="M24.6,109.933V485.4c0,9.387,7.68,17.067,17.067,17.067H24.6c-9.387,0-17.067-7.68-17.067-17.067
			V109.933H24.6z"/>
		<path style="fill:#FFFFFF;" d="M24.6,7.533h17.067C32.28,7.533,24.6,15.213,24.6,24.6v85.333H7.533V24.6
			C7.533,15.213,15.213,7.533,24.6,7.533"/>
	</g>
	<g>
		<path style="fill:#1CD759;" d="M92.867,58.733c0-14.507-11.093-25.6-25.6-25.6s-25.6,11.093-25.6,25.6s11.093,25.6,25.6,25.6
			S92.867,73.24,92.867,58.733"/>
		<path style="fill:#1CD759;" d="M178.2,58.733c0-14.507-11.093-25.6-25.6-25.6c-14.507,0-25.6,11.093-25.6,25.6
			s11.093,25.6,25.6,25.6C167.107,84.333,178.2,73.24,178.2,58.733"/>
		<path style="fill:#1CD759;" d="M263.533,58.733c0-14.507-11.093-25.6-25.6-25.6c-14.507,0-25.6,11.093-25.6,25.6
			s11.093,25.6,25.6,25.6C252.44,84.333,263.533,73.24,263.533,58.733"/>
		<path style="fill:#1CD759;" d="M468.333,383V229.4c0-9.387-7.68-17.067-17.067-17.067h-153.6c-9.387,0-17.067,7.68-17.067,17.067
			v51.2L255,306.2l25.6,25.6V383c0,9.387,7.68,17.067,17.067,17.067h153.6C460.653,400.067,468.333,392.387,468.333,383"/>
	</g>
	<g>
		<path style="fill:#15A143;" d="M451.267,212.333H434.2c9.387,0,17.067,7.68,17.067,17.067V383c0,9.387-7.68,17.067-17.067,17.067
			h17.067c9.387,0,17.067-7.68,17.067-17.067V229.4C468.333,220.013,460.653,212.333,451.267,212.333"/>
		<path style="fill:#15A143;" d="M237.933,33.133c-3.413,0-5.973,0.853-8.533,1.707c10.24,3.413,17.067,12.8,17.067,23.893
			s-6.827,20.48-17.067,23.893c2.56,0.853,5.12,1.707,8.533,1.707c14.507,0,25.6-11.093,25.6-25.6S252.44,33.133,237.933,33.133"/>
		<path style="fill:#15A143;" d="M152.6,33.133c-3.413,0-5.973,0.853-8.533,1.707c10.24,3.413,17.067,12.8,17.067,23.893
			s-6.827,20.48-17.067,23.893c2.56,0.853,5.12,1.707,8.533,1.707c14.507,0,25.6-11.093,25.6-25.6S167.107,33.133,152.6,33.133"/>
		<path style="fill:#15A143;" d="M67.267,33.133c-3.413,0-5.973,0.853-8.533,1.707C68.973,38.253,75.8,47.64,75.8,58.733
			s-6.827,20.48-17.067,23.893c2.56,0.853,5.12,1.707,8.533,1.707c14.507,0,25.6-11.093,25.6-25.6S81.773,33.133,67.267,33.133"/>
	</g>
	<path d="M485.4,511H24.6C10.093,511-1,499.907-1,485.4V109.933c0-5.12,3.413-8.533,8.533-8.533h494.933
		c5.12,0,8.533,3.413,8.533,8.533V485.4C511,499.907,499.907,511,485.4,511z M16.067,118.467V485.4c0,5.12,3.413,8.533,8.533,8.533
		h460.8c5.12,0,8.533-3.413,8.533-8.533V118.467H16.067z"/>
	<path d="M502.467,118.467H7.533c-5.12,0-8.533-3.413-8.533-8.533V24.6C-1,10.093,10.093-1,24.6-1h460.8
		C499.907-1,511,10.093,511,24.6v85.333C511,115.053,507.587,118.467,502.467,118.467z M16.067,101.4h477.867V24.6
		c0-5.12-3.413-8.533-8.533-8.533H24.6c-5.12,0-8.533,3.413-8.533,8.533V101.4z"/>
	<path d="M67.267,92.867c-18.773,0-34.133-15.36-34.133-34.133S48.493,24.6,67.267,24.6S101.4,39.96,101.4,58.733
		S86.04,92.867,67.267,92.867z M67.267,41.667c-9.387,0-17.067,7.68-17.067,17.067S57.88,75.8,67.267,75.8
		s17.067-7.68,17.067-17.067S76.653,41.667,67.267,41.667z"/>
	<path d="M152.6,92.867c-18.773,0-34.133-15.36-34.133-34.133S133.827,24.6,152.6,24.6s34.133,15.36,34.133,34.133
		S171.373,92.867,152.6,92.867z M152.6,41.667c-9.387,0-17.067,7.68-17.067,17.067S143.213,75.8,152.6,75.8
		s17.067-7.68,17.067-17.067S161.987,41.667,152.6,41.667z"/>
	<path d="M237.933,92.867c-18.773,0-34.133-15.36-34.133-34.133S219.16,24.6,237.933,24.6s34.133,15.36,34.133,34.133
		S256.707,92.867,237.933,92.867z M237.933,41.667c-9.387,0-17.067,7.68-17.067,17.067s7.68,17.067,17.067,17.067
		S255,68.12,255,58.733S247.32,41.667,237.933,41.667z"/>
	<path d="M127,161.133H58.733c-5.12,0-8.533-3.413-8.533-8.533c0-5.12,3.413-8.533,8.533-8.533H127c5.12,0,8.533,3.413,8.533,8.533
		C135.533,157.72,132.12,161.133,127,161.133z"/>
	<path d="M127,263.533H58.733c-5.12,0-8.533-3.413-8.533-8.533s3.413-8.533,8.533-8.533H127c5.12,0,8.533,3.413,8.533,8.533
		S132.12,263.533,127,263.533z"/>
	<path d="M203.8,212.333H84.333c-5.12,0-8.533-3.413-8.533-8.533c0-5.12,3.413-8.533,8.533-8.533H203.8
		c5.12,0,8.533,3.413,8.533,8.533C212.333,208.92,208.92,212.333,203.8,212.333z"/>
	<path d="M203.8,314.733H58.733c-5.12,0-8.533-3.413-8.533-8.533s3.413-8.533,8.533-8.533H203.8c5.12,0,8.533,3.413,8.533,8.533
		S208.92,314.733,203.8,314.733z"/>
	<path d="M178.2,365.933H84.333c-5.12,0-8.533-3.413-8.533-8.533s3.413-8.533,8.533-8.533H178.2c5.12,0,8.533,3.413,8.533,8.533
		S183.32,365.933,178.2,365.933z"/>
	<path d="M178.2,468.333H84.333c-5.12,0-8.533-3.413-8.533-8.533s3.413-8.533,8.533-8.533H178.2c5.12,0,8.533,3.413,8.533,8.533
		S183.32,468.333,178.2,468.333z"/>
	<path d="M229.4,417.133H109.933c-5.12,0-8.533-3.413-8.533-8.533c0-5.12,3.413-8.533,8.533-8.533H229.4
		c5.12,0,8.533,3.413,8.533,8.533C237.933,413.72,234.52,417.133,229.4,417.133z"/>
	<path d="M451.267,408.6h-153.6c-14.507,0-25.6-11.093-25.6-25.6v-47.787l-23.04-23.04c-3.413-3.413-3.413-8.533,0-11.947
		l23.04-23.04V229.4c0-14.507,11.093-25.6,25.6-25.6h153.6c14.507,0,25.6,11.093,25.6,25.6V383
		C476.867,397.507,465.773,408.6,451.267,408.6z M266.947,306.2l19.627,19.627c1.707,1.707,2.56,3.413,2.56,5.973V383
		c0,5.12,3.413,8.533,8.533,8.533h153.6c5.12,0,8.533-3.413,8.533-8.533V229.4c0-5.12-3.413-8.533-8.533-8.533h-153.6
		c-5.12,0-8.533,3.413-8.533,8.533v51.2c0,2.56-0.853,4.267-2.56,5.973L266.947,306.2z"/>
	<path d="M348.867,365.933c-14.507,0-25.6-11.093-25.6-25.6V326.68l-14.507-14.507c-1.707-1.707-2.56-4.267-2.56-5.973
		c0-2.56,0.853-4.267,2.56-5.973l14.507-14.507v-13.653c0-14.507,11.093-25.6,25.6-25.6c5.12,0,8.533,3.413,8.533,8.533
		s-3.413,8.533-8.533,8.533c-4.267,0-8.533,4.267-8.533,8.533v17.067c0,2.56-0.853,4.267-2.56,5.973L326.68,306.2l11.093,11.093
		c1.707,1.707,2.56,3.413,2.56,5.973v17.067c0,4.267,4.267,8.533,8.533,8.533c5.12,0,8.533,3.413,8.533,8.533
		S353.987,365.933,348.867,365.933z"/>
	<path d="M400.067,365.933c-5.12,0-8.533-3.413-8.533-8.533s3.413-8.533,8.533-8.533c4.267,0,8.533-4.267,8.533-8.533v-17.067
		c0-2.56,0.853-4.267,2.56-5.973l11.093-11.093l-11.093-11.093c-1.707-1.707-2.56-3.413-2.56-5.973v-17.067
		c0-4.267-4.267-8.533-8.533-8.533c-5.12,0-8.533-3.413-8.533-8.533s3.413-8.533,8.533-8.533c14.507,0,25.6,11.093,25.6,25.6v13.653
		l14.507,14.507c3.413,3.413,3.413,8.533,0,11.947l-14.507,14.507v13.653C425.667,354.84,414.573,365.933,400.067,365.933z"/>
</g>
</svg>