<?xml version="1.0" encoding="iso-8859-1"?>
<!-- Uploaded to: SVG Repo, www.svgrepo.com, Generator: SVG Repo Mixer Tools -->
<svg height="800px" width="800px" version="1.1" id="Layer_1" xmlns="http://www.w3.org/2000/svg" xmlns:xlink="http://www.w3.org/1999/xlink" 
	 viewBox="0 0 512 512" xml:space="preserve">
<circle style="fill:#666666;" cx="256" cy="41.248" r="41.248"/>
<path d="M180.368,170.4v-39.392c0-23.44,19.248-29.168,28.912-30.576l32.272,69.968H180.368z"/>
<path d="M204.672,109.536l24.384,52.864h-40.672v-31.392C188.368,117.44,197.008,111.84,204.672,109.536 M214.192,91.984
	c0,0-41.808,0.56-41.808,39.024s0,47.392,0,47.392s81.392,0,81.68,0L214.192,91.984L214.192,91.984z M254.048,178.4L254.048,178.4
	L254.048,178.4L254.048,178.4z"/>
<path d="M270.448,170.4l32.272-69.968c9.664,1.408,28.912,7.136,28.912,30.576V170.4H270.448z"/>
<path d="M307.36,109.488c7.504,2.24,16.272,7.808,16.272,21.52V162.4H282.96L307.36,109.488 M297.808,91.984L257.952,178.4l0,0
	h81.68c0,0,0-8.928,0-47.392C339.632,92.544,297.808,91.984,297.808,91.984L297.808,91.984z"/>
<polygon style="fill:#F33052;" points="256,91.984 227.296,91.984 256,155.552 284.704,91.984 "/>
<circle style="fill:#666666;" cx="428.368" cy="374.848" r="41.248"/>
<path d="M352.752,504v-39.392c0-23.44,19.248-29.168,28.912-30.576L413.936,504L352.752,504L352.752,504z"/>
<path d="M377.04,443.136L401.424,496h-40.672v-31.392C360.752,451.04,369.376,445.44,377.04,443.136 M386.56,425.584
	c0,0-41.808,0.56-41.808,39.024s0,47.392,0,47.392s81.392,0,81.68,0L386.56,425.584L386.56,425.584z M426.416,512L426.416,512
	L426.416,512L426.416,512z"/>
<path d="M442.832,504l32.272-69.968c9.664,1.408,28.912,7.136,28.912,30.576V504H442.832z"/>
<path d="M479.712,443.136C487.376,445.44,496,451.04,496,464.608V496h-40.672L479.712,443.136 M470.192,425.584L430.336,512l0,0H512
	c0,0,0-8.928,0-47.392S470.192,425.584,470.192,425.584L470.192,425.584z"/>
<polygon style="fill:#F33052;" points="428.368,425.584 399.664,425.584 428.368,489.136 457.088,425.584 "/>
<circle style="fill:#666666;" cx="83.632" cy="374.848" r="41.248"/>
<path d="M8,504v-39.392c0-23.44,19.248-29.168,28.912-30.576L69.184,504L8,504L8,504z"/>
<path d="M32.288,443.136L56.672,496H16v-31.392C16,451.04,24.624,445.44,32.288,443.136 M41.808,425.584
	c0,0-41.808,0.56-41.808,39.024S0,512,0,512s81.392,0,81.68,0L41.808,425.584L41.808,425.584z M81.68,512L81.68,512L81.68,512
	L81.68,512z"/>
<path d="M98.08,504l32.272-69.968c9.664,1.408,28.912,7.136,28.912,30.576V504H98.08z"/>
<path d="M134.96,443.136c7.664,2.288,16.288,7.904,16.288,21.472V496h-40.672L134.96,443.136 M125.44,425.584L85.584,512l0,0h81.68
	c0,0,0-8.928,0-47.392S125.44,425.584,125.44,425.584L125.44,425.584z"/>
<g>
	<polygon style="fill:#F33052;" points="83.632,425.584 54.912,425.584 83.632,489.136 112.336,425.584 	"/>
	<path style="fill:#F33052;" d="M222.512,350.192l-93.584-40.688v-22.528l93.584-40.512v26.528l-65.28,24.96l65.28,25.888V350.192z"
		/>
	<path style="fill:#F33052;" d="M231.168,368.064l33.808-141.168h19.648l-34.176,141.168H231.168z"/>
	<path style="fill:#F33052;" d="M293.296,350.288v-26.352l65.376-25.712l-65.376-25.408V246.64l93.68,40.512v22.352L293.296,350.288
		z"/>
</g>
</svg>