<?xml version="1.0" encoding="utf-8"?>
<!-- Generator: Adobe Illustrator 23.0.5, SVG Export Plug-In . SVG Version: 6.00 Build 0)  -->
<svg version="1.1" id="Layer_1" xmlns="http://www.w3.org/2000/svg" xmlns:xlink="http://www.w3.org/1999/xlink" x="0px" y="0px"
	 viewBox="0 0 24 24" style="enable-background:new 0 0 24 24;" xml:space="preserve">
<style type="text/css">
	.st0{fill:#FFFFFF;fill-opacity:0;}
	.st1{fill:#FFFFFF;}
</style>
<g>
	<g>
		<rect class="st0" width="24" height="24"/>
		<circle class="st1" cx="4" cy="12" r="1"/>
		<path class="st1" d="M7.94,11h12.12c0.52,0,0.94,0.42,0.94,0.94v0.12c0,0.52-0.42,0.94-0.94,0.94H7.94C7.42,13,7,12.58,7,12.06
			v-0.12C7,11.42,7.42,11,7.94,11z"/>
		<path class="st1" d="M3.94,16h16.12c0.52,0,0.94,0.42,0.94,0.94v0.12c0,0.52-0.42,0.94-0.94,0.94H3.94C3.42,18,3,17.58,3,17.06
			v-0.12C3,16.42,3.42,16,3.94,16z"/>
		<path class="st1" d="M3.94,6h16.12C20.58,6,21,6.42,21,6.94v0.12C21,7.58,20.58,8,20.06,8H3.94C3.42,8,3,7.58,3,7.06V6.94
			C3,6.42,3.42,6,3.94,6z"/>
	</g>
</g>
</svg>
